<?xml version="1.0" encoding="UTF-8" standalone="no"?>
<svg
   xmlns:dc="http://purl.org/dc/elements/1.1/"
   xmlns:cc="http://creativecommons.org/ns#"
   xmlns:rdf="http://www.w3.org/1999/02/22-rdf-syntax-ns#"
   xmlns:svg="http://www.w3.org/2000/svg"
   xmlns="http://www.w3.org/2000/svg"
   xmlns:sodipodi="http://sodipodi.sourceforge.net/DTD/sodipodi-0.dtd"
   xmlns:inkscape="http://www.inkscape.org/namespaces/inkscape"
   sodipodi:docname="Poke Ball SVG.svg"
   inkscape:version="1.0 (4035a4fb49, 2020-05-01)"
   id="svg1157"
   version="1.1"
   viewBox="0 0 210 297"
   height="297mm"
   width="210mm">
  <defs
     id="defs1151" />
  <sodipodi:namedview
     inkscape:window-maximized="1"
     inkscape:window-y="-8"
     inkscape:window-x="-8"
     inkscape:window-height="705"
     inkscape:window-width="1366"
     showgrid="false"
     inkscape:document-rotation="0"
     inkscape:current-layer="layer1"
     inkscape:document-units="mm"
     inkscape:cy="523.47468"
     inkscape:cx="618.9187"
     inkscape:zoom="0.49497475"
     inkscape:pageshadow="2"
     inkscape:pageopacity="0.0"
     borderopacity="1.0"
     bordercolor="#666666"
     pagecolor="#ffffff"
     id="base" />
  <metadata
     id="metadata1154">
    <rdf:RDF>
      <cc:Work
         rdf:about="">
        <dc:format>image/svg+xml</dc:format>
        <dc:type
           rdf:resource="http://purl.org/dc/dcmitype/StillImage" />
        <dc:title></dc:title>
      </cc:Work>
    </rdf:RDF>
  </metadata>
  <g
     id="layer1"
     inkscape:groupmode="layer"
     inkscape:label="Layer 1">
    <g
       transform="matrix(0.60394519,0,0,0.60394519,-6.6099773,-26.454239)"
       id="g1752">
      <path
         id="path1739"
         style="opacity:1;fill:#f2f2f2;fill-rule:evenodd;stroke-width:13.2159;stroke-linecap:round;stroke-linejoin:round"
         d="M 380.70703,462.85742 A 38.571432,38.571432 0 0 0 342.14258,501.42773 38.571432,38.571432 0 0 0 380.71484,540 a 38.571432,38.571432 0 0 0 38.57032,-38.57227 38.571432,38.571432 0 0 0 -38.57032,-38.57031 38.571432,38.571432 0 0 0 -0.008,0 z M 74.650391,527.14258 A 307.14284,307.14284 0 0 0 380.71484,808.57227 307.14284,307.14284 0 0 0 686.77734,527.14258 H 451.92773 a 75.714284,75.714284 0 0 1 -71.21484,50 75.714284,75.714284 0 0 1 -71.21289,-50 z"
         transform="scale(0.26458333)" />
      <path
         style="opacity:1;fill:#ff0000;fill-rule:evenodd;stroke-width:13.2159;stroke-linecap:round;stroke-linejoin:round"
         d="M 380.71484,194.28516 A 307.14284,307.14284 0 0 0 74.650391,475.71484 H 309.5 a 75.714285,75.714285 0 0 1 70.81641,-50 75.714285,75.714285 0 0 1 0.39648,0 75.714285,75.714285 0 0 1 71.21484,50 H 686.7793 A 307.14284,307.14284 0 0 0 380.71484,194.28516 Z"
         transform="scale(0.26458333)"
         id="path1722" />
      <path
         id="path1733"
         style="opacity:1;fill:#000000;fill-rule:evenodd;stroke-width:12.3553;stroke-linecap:round;stroke-linejoin:round"
         d="m 380.31641,425.71484 c -31.75508,0.1669 -60.03196,20.13182 -70.81641,50 H 74.650391 v 51.42774 H 309.5 c 10.83415,30.00443 39.31235,49.99955 71.21289,50 31.90126,3.7e-4 60.38045,-19.99489 71.21484,-50 h 234.84961 l 0.002,-51.42774 H 451.92773 c -10.83439,-30.00511 -39.31358,-50.00037 -71.21484,-50 -0.13216,-3.5e-4 -0.26432,-3.5e-4 -0.39648,0 z m 0.39062,37.14258 h 0.008 c 21.30154,6.1e-4 38.5697,17.26877 38.57032,38.57031 4.6e-4,21.30231 -17.26801,38.57166 -38.57032,38.57227 -21.30306,4.6e-4 -38.57272,-17.26921 -38.57226,-38.57227 6.2e-4,-21.29925 17.2652,-38.56645 38.56445,-38.57031 z"
         transform="scale(0.26458333)"
         sodipodi:nodetypes="cccccsccccccsscccs" />
    </g>
  </g>
</svg>
